<svg xmlns="http://www.w3.org/2000/svg" xmlns:xlink="http://www.w3.org/1999/xlink" width="295" height="237.005" viewBox="0 0 295 237.005">
  <defs>
    <clipPath id="clip-path">
      <rect id="Rectángulo_42013" data-name="Rectángulo 42013" width="124.505" height="214.667" fill="none"/>
    </clipPath>
    <clipPath id="clip-path-3">
      <rect id="Rectángulo_42011" data-name="Rectángulo 42011" width="33.949" height="48.718" fill="none"/>
    </clipPath>
    <clipPath id="clip-path-4">
      <rect id="Rectángulo_42010" data-name="Rectángulo 42010" width="15.981" height="20.558" fill="none"/>
    </clipPath>
  </defs>
  <g id="Grupo_142187" data-name="Grupo 142187" transform="translate(-1125 -398)">
    <g id="Grupo_141742" data-name="Grupo 141742" transform="translate(1112.84 426.645)">
      <path id="Floor" d="M55.362,300.75c-57.6-20.349-57.6-53.34,0-73.688s150.994-20.349,208.6,0,57.6,53.34,0,73.688S112.964,321.1,55.362,300.75Z" transform="translate(0 -107.651)" fill="#f0f0f0"/>
    </g>
    <g id="Grupo_141947" data-name="Grupo 141947" transform="translate(1210 398)">
      <g id="Grupo_141946" data-name="Grupo 141946" clip-path="url(#clip-path)">
        <g id="Grupo_141945" data-name="Grupo 141945">
          <g id="Grupo_141944" data-name="Grupo 141944" clip-path="url(#clip-path)">
            <path id="Trazado_214359" data-name="Trazado 214359" d="M300.322,24.611l-7.754-4.5a1.545,1.545,0,0,0-.643-1.4l7.744,4.51a1.492,1.492,0,0,1,.653,1.393" transform="translate(-204.067 -13.078)" fill="#bfbfbf"/>
            <path id="Trazado_214360" data-name="Trazado 214360" d="M294.577,23.087l-7.745-4.507a1.914,1.914,0,0,1,.627-.25l7.751,4.5a2.052,2.052,0,0,0-.633.253" transform="translate(-200.507 -12.813)" fill="#00d9d0"/>
            <path id="Trazado_214361" data-name="Trazado 214361" d="M296.666,22.747l-7.751-4.5a1.225,1.225,0,0,1,.906.113l7.751,4.51a1.26,1.26,0,0,0-.906-.12" transform="translate(-201.963 -12.726)" fill="#00a39c"/>
            <path id="Trazado_214362" data-name="Trazado 214362" d="M287.753,6.014,280,1.514A9.013,9.013,0,0,1,282.644.452l7.745,4.5a8.941,8.941,0,0,0-2.636,1.058" transform="translate(-195.732 -0.316)" fill="#d6e7f8"/>
            <path id="Trazado_214363" data-name="Trazado 214363" d="M296.529,4.64l-7.745-4.5A4.979,4.979,0,0,1,292.372.6L300.117,5.1a4.954,4.954,0,0,0-3.588-.464" transform="translate(-201.872 0)" fill="#d6e7f8"/>
            <path id="Trazado_214364" data-name="Trazado 214364" d="M11.272,554.4,3.527,549.9C1.959,548.987.978,547.045.972,544.3l7.751,4.5c.006,2.751.981,4.683,2.549,5.6" transform="translate(-0.679 -380.488)" fill="#d6e7f8"/>
            <path id="Trazado_214365" data-name="Trazado 214365" d="M168.716,460.838c1.894-1.091,3.442-.227,3.449,1.965a7.59,7.59,0,0,1-3.436,5.942l-7.017,4.053c-1.893,1.091-3.442.211-3.448-1.968a7.523,7.523,0,0,1,3.429-5.936Z" transform="translate(-110.632 -321.815)" fill="#9bb5cd"/>
            <path id="Trazado_214366" data-name="Trazado 214366" d="M110.017,16.163c4.809-2.776,8.771-.542,8.79,4.988l.3,107.432c.02,5.53-3.923,8.8-8.738,11.573L34.8,183.778c-4.8,2.78-8.758.526-8.764-5l-.3-103.9c-.013-5.521,3.9-12.317,8.712-15.09Zm4.517,106.129L114.251,22a1.34,1.34,0,0,0-2.185-1.26L32.47,66.69a4.9,4.9,0,0,0-2.182,3.786l.283,100.3c0,1.354,1.007,1.919,2.205,1.234l79.589-45.955a4.881,4.881,0,0,0,2.169-3.76m-38.441,35.1a7.59,7.59,0,0,0,3.436-5.942c-.006-2.192-1.555-3.056-3.449-1.965l-7.024,4.056a7.523,7.523,0,0,0-3.429,5.936c.006,2.179,1.555,3.059,3.448,1.968Z" transform="translate(-17.997 -10.464)" fill="#f8f9fc"/>
            <path id="Trazado_214367" data-name="Trazado 214367" d="M122.618,33.465a1.34,1.34,0,0,1,2.185,1.26l.283,100.294a4.88,4.88,0,0,1-2.169,3.76L43.327,184.734c-1.2.685-2.2.12-2.2-1.234L40.84,83.2a4.9,4.9,0,0,1,2.182-3.786Z" transform="translate(-28.549 -23.192)" fill="#1b3f5e"/>
            <path id="Trazado_214368" data-name="Trazado 214368" d="M8.044,307.472l-7.751-4.5L0,199.067l7.748,4.5Z" transform="translate(0 -139.156)" fill="#d6e7f8"/>
            <path id="Trazado_214369" data-name="Trazado 214369" d="M36.69,52.1l-7.751-4.5L104.5,3.98l7.752,4.5Z" transform="translate(-20.23 -2.782)" fill="#d6e7f8"/>
            <path id="Trazado_214370" data-name="Trazado 214370" d="M7.749,177.125,0,172.624a19.02,19.02,0,0,1,4.481-11.385l7.751,4.5a19.1,19.1,0,0,0-4.485,11.385" transform="translate(-0.001 -112.713)" fill="#d6e7f8"/>
            <path id="Trazado_214371" data-name="Trazado 214371" d="M22.642,157.134l-7.751-4.5a15.72,15.72,0,0,1,4.228-3.705l7.751,4.5a15.9,15.9,0,0,0-4.228,3.7" transform="translate(-10.409 -104.107)" fill="#d6e7f8"/>
            <path id="Trazado_214372" data-name="Trazado 214372" d="M225.577,225.358l-.517,33.241-26.1,14.7.518-33.241Z" transform="translate(-139.079 -157.535)" fill="#b98347"/>
            <path id="Trazado_214373" data-name="Trazado 214373" d="M138.5,237.827l-.517,33.241-26.251-15.656.517-33.241Z" transform="translate(-78.107 -155.307)" fill="#e0b171"/>
            <path id="Trazado_214374" data-name="Trazado 214374" d="M120.429,329.7v.562l4.28,2.471v-.561Z" transform="translate(-84.185 -230.472)" fill="#553819"/>
            <path id="Trazado_214375" data-name="Trazado 214375" d="M122.057,320.631l.482.278V317.9l.48.277-.721-1.665-.721.832.48.277Z" transform="translate(-84.987 -221.252)" fill="#553819"/>
            <path id="Trazado_214376" data-name="Trazado 214376" d="M129.192,324.751l.482.278v-3.014l.48.277-.721-1.665-.721.832.48.277Z" transform="translate(-89.975 -224.132)" fill="#553819"/>
            <path id="Trazado_214377" data-name="Trazado 214377" d="M121.348,320.265l-4.2-2.426a3.051,3.051,0,0,1-1.47-2.318v-4.2c0-.81.659-1.089,1.47-.621l4.2,2.426a3.052,3.052,0,0,1,1.47,2.318v4.2c0,.81-.66,1.089-1.47.621m-4.2-9.272c-.648-.374-1.175-.151-1.175.5v4.2a2.437,2.437,0,0,0,1.175,1.852l4.2,2.426c.647.374,1.174.151,1.174-.5v-4.2a2.44,2.44,0,0,0-1.174-1.852Z" transform="translate(-80.862 -217.032)" fill="#553819"/>
            <path id="Trazado_214378" data-name="Trazado 214378" d="M151.4,337.428a.048.048,0,0,1-.024-.036,2.311,2.311,0,0,0-.877-.7c-.517-.3-.878-.405-.878-.313,0,.011-.01.016-.023.008a.047.047,0,0,1-.023-.035c0-.084-.295-.345-.733-.615v2.32l-.01.274c-.051.283-.3.324-.613.146a1.273,1.273,0,0,1-.621-.956c0-.084.062-.115.139-.07a.3.3,0,0,1,.139.23.687.687,0,0,0,.343.5c.37.213.334-.239.334-.239v-2.369c-.44-.237-.734-.316-.734-.232,0,.012-.01.016-.023.008a.047.047,0,0,1-.024-.035,2.306,2.306,0,0,0-.877-.7c-.518-.3-.877-.405-.877-.313,0,.012-.011.015-.025.008a.05.05,0,0,1-.023-.035c.041-1.042,1.163-1.454,2.526-.765,0-.073.09-.078.2-.015a.376.376,0,0,1,.2.247,5.685,5.685,0,0,1,2.526,3.681c0,.012-.009.016-.023.008" transform="translate(-102.037 -232.897)" fill="#553819"/>
            <path id="Trazado_214379" data-name="Trazado 214379" d="M148.835,336.134l-4.2-2.426a3.052,3.052,0,0,1-1.47-2.318v-4.2c0-.81.659-1.089,1.47-.621l4.2,2.426a3.051,3.051,0,0,1,1.47,2.318v4.2c0,.811-.659,1.089-1.47.621m-4.2-9.272c-.647-.374-1.174-.151-1.174.5v4.2a2.441,2.441,0,0,0,1.174,1.853l4.2,2.425c.648.374,1.174.151,1.174-.5v-4.2a2.439,2.439,0,0,0-1.174-1.852Z" transform="translate(-100.077 -228.125)" fill="#553819"/>
            <path id="Trazado_214380" data-name="Trazado 214380" d="M181.044,351.019c-.017.655-.46.938-1.022.664v2.074l.723.417v.269l-1.624-.937v-.269l.722.417V351.58a2.5,2.5,0,0,1-1.021-1.844V348.2l2.222,1.282Z" transform="translate(-125.004 -243.409)" fill="#553819"/>
            <path id="Trazado_214381" data-name="Trazado 214381" d="M176.323,352l-4.2-2.426a3.053,3.053,0,0,1-1.469-2.318v-4.2c0-.81.659-1.089,1.469-.621l4.2,2.426a3.053,3.053,0,0,1,1.47,2.318v4.2c0,.811-.66,1.089-1.47.621m-4.2-9.272c-.647-.374-1.174-.151-1.174.5v4.2a2.439,2.439,0,0,0,1.174,1.852l4.2,2.426c.647.374,1.174.151,1.174-.5v-4.2a2.438,2.438,0,0,0-1.174-1.852Z" transform="translate(-119.293 -239.218)" fill="#553819"/>
            <path id="Trazado_214382" data-name="Trazado 214382" d="M165.807,188.995l-26.1,14.7-26.251-15.655,26.1-14.7Z" transform="translate(-79.309 -121.171)" fill="#f0cc8c"/>
            <path id="Trazado_214383" data-name="Trazado 214383" d="M153.892,192.339l-5.4,3.041,26.25,15.656,5.4-3.041Z" transform="translate(-103.801 -134.453)" fill="#f8ecea"/>
            <path id="Trazado_214384" data-name="Trazado 214384" d="M235.578,247.4l5.39-3.04-.074,5.408-5.39,3.015Z" transform="translate(-164.627 -170.816)" fill="#c0a899"/>
            <g id="Grupo_141943" data-name="Grupo 141943" transform="translate(20.344 54.87)" style="isolation: isolate">
              <g id="Grupo_141942" data-name="Grupo 141942">
                <g id="Grupo_141941" data-name="Grupo 141941" clip-path="url(#clip-path-3)">
                  <path id="Trazado_214385" data-name="Trazado 214385" d="M103.914,272.026l-2.108-1.225,2.468-4.276,2.109,1.225Z" transform="translate(-91.51 -241.181)" fill="#b7c2cc"/>
                  <path id="Trazado_214386" data-name="Trazado 214386" d="M111.28,270.6a5.134,5.134,0,0,0,2.632,1.5l-2.469,4.276-2.632-1.5Z" transform="translate(-96.407 -244.027)" fill="#f8f9fc"/>
                  <path id="Trazado_214387" data-name="Trazado 214387" d="M83.64,282.421l1.258.717,2.632,1.5,1.258.717-9.043,15.657L74.6,298.074Z" transform="translate(-72.494 -252.294)" fill="#d84318"/>
                  <path id="Trazado_214388" data-name="Trazado 214388" d="M69.7,295.228,67.6,294l9.037-15.653,2.109,1.225Z" transform="translate(-67.596 -249.447)" fill="#a53312"/>
                  <path id="Trazado_214389" data-name="Trazado 214389" d="M108.866,223.531l-2.109-1.225a5.112,5.112,0,0,1-1.159-.923c-2.868-3.05-2.487-9.793,1.153-16.092a25,25,0,0,1,2.3-3.343l2.109,1.225a25.033,25.033,0,0,0-2.3,3.344c-3.64,6.3-4.021,13.042-1.153,16.091a5.119,5.119,0,0,0,1.159.923" transform="translate(-92.835 -196.04)" fill="#a53312"/>
                  <path id="Trazado_214390" data-name="Trazado 214390" d="M123.6,189.829l-2.109-1.225a19.122,19.122,0,0,1,5.1-4.471,10.978,10.978,0,0,1,3.2-1.275l2.108,1.226a10.973,10.973,0,0,0-3.2,1.274,19.118,19.118,0,0,0-5.1,4.471" transform="translate(-105.272 -182.695)" fill="#a53312"/>
                  <path id="Trazado_214391" data-name="Trazado 214391" d="M151.184,183.705l-2.109-1.226a5.911,5.911,0,0,1,4.224.528l2.109,1.225a5.911,5.911,0,0,0-4.224-.527" transform="translate(-124.553 -182.316)" fill="#a53312"/>
                  <path id="Trazado_214392" data-name="Trazado 214392" d="M128.587,187.078c4.107,2.341,4.129,9.971.048,17.039a21.3,21.3,0,0,1-7.4,7.814,8.518,8.518,0,0,1-5.994,1.3,5.135,5.135,0,0,1-2.632-1.5c-2.868-3.05-2.487-9.793,1.153-16.091a21.3,21.3,0,0,1,7.4-7.814c2.684-1.55,5.371-1.921,7.424-.747m-1.721,16.031c3.11-5.386,3.093-11.2-.037-12.986-1.565-.892-3.613-.607-5.658.574a16.246,16.246,0,0,0-5.643,5.951c-3.11,5.386-3.093,11.2.037,12.986,1.565.892,3.613.607,5.658-.574a16.242,16.242,0,0,0,5.643-5.951" transform="translate(-97.733 -185.162)" fill="#d84318"/>
                  <g id="Grupo_141940" data-name="Grupo 141940" transform="translate(15.474 4.437)" opacity="0.65">
                    <g id="Grupo_141939" data-name="Grupo 141939">
                      <g id="Grupo_141938" data-name="Grupo 141938" clip-path="url(#clip-path-4)">
                        <path id="Trazado_214393" data-name="Trazado 214393" d="M126.976,198.156c2.045-1.181,4.093-1.466,5.658-.574,3.13,1.784,3.147,7.6.037,12.986a16.242,16.242,0,0,1-5.643,5.951c-2.045,1.181-4.093,1.466-5.658.574-3.13-1.784-3.146-7.6-.037-12.986a16.242,16.242,0,0,1,5.643-5.951" transform="translate(-119.012 -197.059)" fill="#fff"/>
                      </g>
                    </g>
                  </g>
                </g>
              </g>
            </g>
            <path id="Trazado_214394" data-name="Trazado 214394" d="M306.689,264.551l-1.874-1.089,24.1,120.945,1.874,1.089Z" transform="translate(-213.078 -184.17)" fill="#331b0d"/>
            <path id="Trazado_214395" data-name="Trazado 214395" d="M309.682,258.808l-1.874-1.089-2.993,1.728,1.874,1.089Z" transform="translate(-213.078 -180.156)" fill="#412210"/>
            <path id="Trazado_214396" data-name="Trazado 214396" d="M311.042,263.066l24.1,120.945,2.993-1.728-24.1-120.945Z" transform="translate(-217.431 -182.686)" fill="#28150a"/>
            <path id="Trazado_214397" data-name="Trazado 214397" d="M309.038,634.158l20.34-11.743,1.874,1.089-22.214,12.825Z" transform="translate(-216.03 -435.093)" fill="#412210"/>
            <path id="Trazado_214398" data-name="Trazado 214398" d="M309.038,638.858l22.214-12.825.329,1.508-22.543,12.979Z" transform="translate(-216.03 -437.622)" fill="#28150a"/>
            <path id="Trazado_214399" data-name="Trazado 214399" d="M299.179,585.95l20.34-11.743,1.874,1.089-22.214,12.825Z" transform="translate(-209.138 -401.394)" fill="#412210"/>
            <path id="Trazado_214400" data-name="Trazado 214400" d="M299.179,590.651l22.214-12.825.33,1.507-22.543,12.979Z" transform="translate(-209.138 -403.924)" fill="#28150a"/>
            <path id="Trazado_214401" data-name="Trazado 214401" d="M290.072,538.913l20.34-11.743,1.874,1.089-22.214,12.825Z" transform="translate(-202.772 -368.513)" fill="#412210"/>
            <path id="Trazado_214402" data-name="Trazado 214402" d="M290.072,543.613l22.214-12.825.33,1.507-22.543,12.979Z" transform="translate(-202.772 -371.042)" fill="#28150a"/>
            <path id="Trazado_214403" data-name="Trazado 214403" d="M280.714,492.376l20.34-11.743,1.874,1.089-22.214,12.825Z" transform="translate(-196.231 -335.982)" fill="#412210"/>
            <path id="Trazado_214404" data-name="Trazado 214404" d="M280.714,497.078l22.214-12.825.33,1.507-22.544,12.978Z" transform="translate(-196.231 -338.512)" fill="#28150a"/>
            <path id="Trazado_214405" data-name="Trazado 214405" d="M271.525,446.592l20.34-11.743,1.874,1.089-22.214,12.825Z" transform="translate(-189.807 -303.977)" fill="#412210"/>
            <path id="Trazado_214406" data-name="Trazado 214406" d="M271.525,451.292l22.214-12.825.33,1.508-22.543,12.978Z" transform="translate(-189.807 -306.506)" fill="#28150a"/>
            <path id="Trazado_214407" data-name="Trazado 214407" d="M262.251,400.307l20.34-11.743,1.874,1.089-22.214,12.825Z" transform="translate(-183.324 -271.622)" fill="#412210"/>
            <path id="Trazado_214408" data-name="Trazado 214408" d="M262.251,405.007l22.214-12.825.33,1.507-22.543,12.978Z" transform="translate(-183.324 -274.151)" fill="#28150a"/>
            <path id="Trazado_214409" data-name="Trazado 214409" d="M253.478,353.937l20.34-11.743,1.874,1.089-22.214,12.825Z" transform="translate(-177.192 -239.207)" fill="#412210"/>
            <path id="Trazado_214410" data-name="Trazado 214410" d="M253.478,358.638l22.214-12.825.33,1.508L253.478,360.3Z" transform="translate(-177.192 -241.737)" fill="#28150a"/>
            <path id="Trazado_214411" data-name="Trazado 214411" d="M244.121,307.652l20.34-11.743L266.335,297l-22.214,12.825Z" transform="translate(-170.65 -206.853)" fill="#412210"/>
            <path id="Trazado_214412" data-name="Trazado 214412" d="M244.121,312.352l22.214-12.825.33,1.507-22.543,12.979Z" transform="translate(-170.65 -209.381)" fill="#28150a"/>
            <path id="Trazado_214413" data-name="Trazado 214413" d="M229.9,308.882l-1.874-1.089,24.1,120.945,1.874,1.089Z" transform="translate(-159.402 -215.159)" fill="#331b0d"/>
            <path id="Trazado_214414" data-name="Trazado 214414" d="M232.892,303.15l-1.874-1.089-2.988,1.725,1.874,1.089Z" transform="translate(-159.402 -211.153)" fill="#412210"/>
            <path id="Trazado_214415" data-name="Trazado 214415" d="M234.256,307.4l24.1,120.945,2.988-1.725-24.1-120.945Z" transform="translate(-163.755 -213.682)" fill="#28150a"/>
            <path id="Trazado_214416" data-name="Trazado 214416" d="M304.884,304.136c-.18.165-1.05.608-1.257.767-2.074-1.593-6.742-4.355-6.965-5.875-.213-1.454-.027-2.866,3.355-2.838,1.282.01,4.67,2.795,5.988,3.983a3.853,3.853,0,0,1-1.122,3.964" transform="translate(-207.337 -207.048)" fill="#e5bd99"/>
            <path id="Trazado_214417" data-name="Trazado 214417" d="M315.768,306.973a17.132,17.132,0,0,0,1.778-4.177,4.049,4.049,0,0,1,1.116.481l15.934,8.543c1.883,1.211,1.416,3.41.211,5.282s-2.686,2.724-4.569,1.513L314.3,310.056a4.079,4.079,0,0,1-.686-.562,10.2,10.2,0,0,0,2.155-2.521" transform="translate(-219.228 -211.667)" fill="#255680"/>
            <path id="Trazado_214418" data-name="Trazado 214418" d="M373.963,325.111a5.513,5.513,0,0,1,3.97-4.226A4.761,4.761,0,0,1,383.4,325.9l-3.769,16.192a4.035,4.035,0,1,1-8.019-.911Z" transform="translate(-259.756 -224.291)" fill="#255680"/>
            <path id="Trazado_214419" data-name="Trazado 214419" d="M376.813,572.119s1.083,3.639-.092,4.929c-.329.361-1.737.47-3.374.115-1.07-.232-2.223-.88-3.285-1.03A9.109,9.109,0,0,1,363.8,572.3c-2.754-3.658,2.246-2.563,5.516-1.406a26.248,26.248,0,0,0,7.5,1.221" transform="translate(-253.753 -398.309)" fill="#3d1f0b"/>
            <path id="Trazado_214420" data-name="Trazado 214420" d="M375.547,471.432a6.776,6.776,0,0,1-3.525-3.839l.032-37.831a5.874,5.874,0,0,1,11.748.01l-.035,40.649c0,.088-.009.173-.014.26-2.055,2.273-5.562,2.09-8.207.751" transform="translate(-260.058 -296.318)" fill="#bfb029"/>
            <path id="Trazado_214421" data-name="Trazado 214421" d="M341.29,583.93s1.083,3.639-.092,4.928c-.329.362-1.737.47-3.374.115-1.07-.232-2.223-.88-3.285-1.03a9.108,9.108,0,0,1-6.263-3.828c-2.754-3.658,2.247-2.563,5.516-1.406a26.248,26.248,0,0,0,7.5,1.221" transform="translate(-228.921 -406.565)" fill="#51290f"/>
            <path id="Trazado_214422" data-name="Trazado 214422" d="M340.023,483.242A6.781,6.781,0,0,1,336.5,479.4l.032-37.831a5.874,5.874,0,1,1,11.748.01l-.034,40.648c0,.088-.009.174-.014.26-2.055,2.273-5.563,2.09-8.207.751" transform="translate(-235.226 -304.574)" fill="#ffeb37"/>
            <path id="Trazado_214423" data-name="Trazado 214423" d="M353.881,318.983c-.55-.493,2.8-1.937,2.8-1.937l-.068-3.964,7-.6.056,3.058a2.548,2.548,0,0,1,.94-.232c1.051.3,3.046,3.137,3.046,3.137-.015.018-13.782,3.531-13.779.538" transform="translate(-247.334 -218.438)" fill="#e5bd99"/>
            <path id="Trazado_214424" data-name="Trazado 214424" d="M337.111,359.541h23.047c.018-9-.4-22.154-.7-26.974-.179-2.816-.435-10.611-6.522-10.7,0,0,2,2.691-2.663,3.711-4.576,1-6.635-1.345-6.635-1.345-2.046.884-6.162,4.075-6.02,15.187.077,6.007-.24,14.379-.506,20.118" transform="translate(-235.654 -225)" fill="#1b3f5e"/>
            <path id="Trazado_214425" data-name="Trazado 214425" d="M338.749,358.576c.02-1.746.03-3.411.01-4.934-.071-5.553.924-9.136,2.193-11.431a11.859,11.859,0,0,1,3.675,5.756c-.183.609-.355,1.229-.508,1.837a1.889,1.889,0,0,0-.558.488c-2.061,2.487-4.182,5.045-4.812,8.284" transform="translate(-236.799 -239.22)" fill="#f6871e"/>
            <path id="Trazado_214426" data-name="Trazado 214426" d="M359.648,345.55a41.4,41.4,0,0,1-3.6-3.311c-4.4-5.868-2.426-13.692-1.4-16.281a20.469,20.469,0,0,1,1.411-2.883,5.279,5.279,0,0,0-3.413-1.2l0,.031a20.732,20.732,0,0,1-.083,3.529,10.176,10.176,0,0,1-.538,2.1c-.109.269-.287.662-.621.695a2.874,2.874,0,0,1-1.547-.471c-.654-.352-1.271-.765-1.888-1.177-.466-.312-4.645-2.346-4.645-2.346a7.182,7.182,0,0,0-2.365,1.715c2.762-.311,5.685,2.375,6.629,3.523,2.883,3.462,3.614,6.6,3.187,9.025-1.218,6.924-5.979,13.309-12.76,15.491a7.968,7.968,0,0,1-.995.436c-.079,2.064-.277,3.978-.32,5.666-.088,3.519.032,5.948.032,5.948.832,1.147,13.668,1.207,19.5-.031,2.061-.437,3.076-1.777,3.594-3.9.061-4.548-.03-10.822-.183-16.567" transform="translate(-235.345 -225.006)" fill="#ffeb37"/>
            <path id="Trazado_214427" data-name="Trazado 214427" d="M252.013,406.489c-.048.239-.486,1.111-.559,1.362-2.614-.056-8.012.482-9.091-.611-1.032-1.045-1.719-2.294,1.023-4.274,1.039-.751,5.417-.513,7.184-.336a3.853,3.853,0,0,1,1.443,3.859" transform="translate(-168.788 -281.328)" fill="#e5bd99"/>
            <path id="Trazado_214428" data-name="Trazado 214428" d="M267.914,396.241a17.136,17.136,0,0,0-1.04-4.419,4.039,4.039,0,0,1,1.184-.274l17.9-2.551c2.234-.139,3.16,1.909,3.3,4.131s-.552,3.785-2.786,3.924L268.556,399.6a4.079,4.079,0,0,1-.886-.047,10.2,10.2,0,0,0,.244-3.308" transform="translate(-186.556 -271.92)" fill="#255680"/>
            <path id="Trazado_214429" data-name="Trazado 214429" d="M331,343.781a5.512,5.512,0,0,0-.766-5.747,4.761,4.761,0,0,0-7.368.889l-6.367,15.358a4.035,4.035,0,1,0,7.049,3.93Z" transform="translate(-220.882 -235.356)" fill="#255680"/>
            <path id="Trazado_214430" data-name="Trazado 214430" d="M361.728,273.514a4.438,4.438,0,0,1,1.476-1.83c.516-.389,1.107-.684,1.318-1.343.464-1.45,1.014-3.415.166-4.829-1.553-2.592-4.265-3.6-6.718-5.085a.292.292,0,0,1-.1-.113,7.64,7.64,0,0,0-2.773.451,6.146,6.146,0,0,0-2.241,1.4,5.653,5.653,0,0,0-1.6,3.237c-.716,4.687.623,7.827,3.8,10.023,2.009,1.392,3.245,1.918,4.675,1.266a7.977,7.977,0,0,0,2.158-1.636,1.67,1.67,0,0,1-.155-1.543" transform="translate(-245.406 -181.969)" fill="#e5bd99"/>
            <path id="Trazado_214431" data-name="Trazado 214431" d="M369.279,268.606c.273-.965.764-2.619.2-3.561a8.265,8.265,0,0,0-3.121-2.622,17.567,17.567,0,0,0-3.622-1.945.2.2,0,0,1-.129-.166,7.59,7.59,0,0,0-2.467.453,6.229,6.229,0,0,0-1.861,1.077,24.127,24.127,0,0,1,2.6,3.341,22.438,22.438,0,0,1,2.781,5.823,28.17,28.17,0,0,0,1.332,3.62c.416-.378.865-.735,1.3-1.078.364-.718.7-1.433,1.065-2.03a1.474,1.474,0,0,1,1.041-.666c.258-.756.654-1.448.879-2.246" transform="translate(-250.451 -181.968)" fill="#e5bd99"/>
            <path id="Trazado_214432" data-name="Trazado 214432" d="M347.619,281.712a2.73,2.73,0,0,1,.609-.971,1.076,1.076,0,0,0,.476-.915,9.422,9.422,0,0,0-.241-.932,3.489,3.489,0,0,1,.251-1.595,12.151,12.151,0,0,0,.08-1.3c.032-.43.137-.839.422-.985.022-.011.043-.024.065-.036,1.137,1.508,2.6,2.755,3.125,4.727a13.225,13.225,0,0,1,.3,1.9c.073.616.273,1.31.308,1.9.022.37-.169.733.176,1.162.155.193.769.265.77.18a5.932,5.932,0,0,1,.128-1.464c.119-.43.367-.765.756-.8a1.531,1.531,0,0,1,1.261.822,2.794,2.794,0,0,1,.287,1.912c-.119.814-.517,1.574-1.368,1.274a2.4,2.4,0,0,1,.631,1.229.784.784,0,0,0,.122.311.558.558,0,0,0,.193.147c.057.031.107.063.16.095a1.026,1.026,0,0,1-.619.323c-.305.022-.254.19-1.3.493a2.374,2.374,0,0,1-1.059-.122l-2.335-.519a1.735,1.735,0,0,1-.622-.233,3.471,3.471,0,0,1-1.029-1.458,1.268,1.268,0,0,1-.1-.289c-.069-.39.322-.5.2-.9a5.849,5.849,0,0,0-.3-.573.935.935,0,0,1,.019-.727.836.836,0,0,1-.364-.619,2.924,2.924,0,0,0-.1-.693,3.082,3.082,0,0,0-.774-.939.443.443,0,0,1-.126-.4" transform="translate(-242.99 -192.221)" fill="#e5bd99"/>
            <path id="Trazado_214433" data-name="Trazado 214433" d="M371.788,266.794c-.288-1.949-4.978-2.1-4.978-2.1-.242-.188-1.369-3.963-4.733-4.014a2.555,2.555,0,0,1-.161,1.249,8.178,8.178,0,0,1-2.466,2.837c-.193.171.069.615.069.615l.026,3.05-.585.005a10.183,10.183,0,0,0,.542,1.055c.258.441,1.936,2.794,3.219,5,.173.3.341.588.5.87.685,1.2-.844,3.219-.716,3.555.259.678,4.426-.111,5.339-1.977.225-.2,5.4-5.674,3.942-10.144" transform="translate(-250.928 -182.227)" fill="#728d96"/>
            <path id="Trazado_214434" data-name="Trazado 214434" d="M371.812,261.373a7.912,7.912,0,0,0-5.153-.987,2.566,2.566,0,0,1-.158,1.279,4.972,4.972,0,0,1-.982,1.467,2.4,2.4,0,0,0,.111.6c.277.81.908,1.034,1.437,1.626a5.416,5.416,0,0,1,1.459,3.524,13.343,13.343,0,0,1-.834,4.588,5.984,5.984,0,0,0,.844,1.034,4.569,4.569,0,0,1,1.156,2.241v0a9.478,9.478,0,0,0,3.015-2.433c3.89-4.15,6.343-8.612-.9-12.941" transform="translate(-255.513 -181.961)" fill="#728d96"/>
            <path id="Trazado_214435" data-name="Trazado 214435" d="M349.74,284.608a1.077,1.077,0,0,0,.475-.915,9.275,9.275,0,0,0-.241-.931,3.491,3.491,0,0,1,.251-1.6c.012-.062.017-.128.025-.193,1.079.157,1.837-.961,2.6-.007a20.978,20.978,0,0,1,1.067,2.606,13.226,13.226,0,0,1,.3,1.9c.073.616.272,1.31.308,1.9.022.37-.17.733.176,1.162.155.192.769.265.77.18a5.934,5.934,0,0,1,.128-1.464c.119-.43.367-.766.755-.8a1.528,1.528,0,0,1,1.261.822,2.792,2.792,0,0,1,.287,1.912c-.119.814-.517,1.574-1.368,1.274.106.093-5.8.389-5.8.389l-.057-.122a1.324,1.324,0,0,1-.1-.289c-.069-.39.322-.5.2-.9a6,6,0,0,0-.3-.573.933.933,0,0,1,.019-.727.837.837,0,0,1-.364-.62,2.934,2.934,0,0,0-.1-.693,3.092,3.092,0,0,0-.774-.939.441.441,0,0,1-.125-.4,2.717,2.717,0,0,1,.609-.97" transform="translate(-244.048 -196.135)" fill="#e5bd99"/>
            <path id="Trazado_214436" data-name="Trazado 214436" d="M367.934,268.711a12.578,12.578,0,0,0-3.672-4.423,10.83,10.83,0,0,0-1.861-1.306,4.537,4.537,0,0,1-.565,1.111c-.585.838-1.86,1.117-2.552,1.951a2.6,2.6,0,0,0-.484,1.41,2.645,2.645,0,0,0,.455,1.448,13.887,13.887,0,0,1,1.689,3.806l8.023-.9a21.651,21.651,0,0,0-1.034-3.094" transform="translate(-250.813 -183.835)" fill="#728d96"/>
          </g>
        </g>
      </g>
    </g>
  </g>
</svg>
