<svg xmlns="http://www.w3.org/2000/svg" width="190" height="116" viewBox="0 0 190 116">
  <g id="Grupo_142188" data-name="Grupo 142188" transform="translate(-179.75 -3946)">
    <g id="Grupo_141764" data-name="Grupo 141764" transform="translate(-0.25 3546)">
      <rect id="Rectángulo_36775" data-name="Rectángulo 36775" width="190" height="90" transform="translate(180 426)" fill="none"/>
      <g id="Grupo_129487" data-name="Grupo 129487" transform="translate(179.813 21.043)" opacity="0.2">
        <g id="Grupo_129451" data-name="Grupo 129451" transform="translate(190.188 417.748) rotate(180)">
          <path id="Trazado_114977" data-name="Trazado 114977" d="M12.041,0H0L9.126,19.4,0,38.791H12.041l9.126-19.4Z" transform="translate(0 0)" fill="#d84318"/>
          <path id="Trazado_114978" data-name="Trazado 114978" d="M12.041,0H0L9.126,19.4,0,38.791H12.041l9.126-19.4Z" transform="translate(21.167 0)" fill="#d84318"/>
          <path id="Trazado_114979" data-name="Trazado 114979" d="M12.041,0H0L9.126,19.4,0,38.791H12.041l9.126-19.4Z" transform="translate(42.335 0)" fill="#d84318"/>
        </g>
        <g id="Grupo_129486" data-name="Grupo 129486" transform="translate(0.188 454.353)">
          <path id="Trazado_114977-2" data-name="Trazado 114977" d="M12.041,0H0L9.126,19.4,0,38.791H12.041l9.126-19.4Z" transform="translate(0 0)" fill="#1b3f5e"/>
          <path id="Trazado_114978-2" data-name="Trazado 114978" d="M12.041,0H0L9.126,19.4,0,38.791H12.041l9.126-19.4Z" transform="translate(21.167 0)" fill="#1b3f5e"/>
          <path id="Trazado_114979-2" data-name="Trazado 114979" d="M12.041,0H0L9.126,19.4,0,38.791H12.041l9.126-19.4Z" transform="translate(42.335 0)" fill="#1b3f5e"/>
        </g>
      </g>
    </g>
    <g id="Grupo_141962" data-name="Grupo 141962" transform="translate(223.234 3952.771)">
      <circle id="Elipse_5446" data-name="Elipse 5446" cx="38.124" cy="38.124" r="38.124" transform="translate(13.132 13.473)" fill="#fff59d"/>
      <g id="Grupo_141961" data-name="Grupo 141961" transform="translate(1.433 1.143)">
        <g id="Grupo_141960" data-name="Grupo 141960">
          <path id="Trazado_214455" data-name="Trazado 214455" d="M51.514,101.314A50.085,50.085,0,1,1,101.6,51.227,50.141,50.141,0,0,1,51.514,101.314Zm0-94.526a44.441,44.441,0,1,0,44.441,44.44A44.489,44.489,0,0,0,51.514,6.787Z" transform="translate(-1.433 -1.143)" fill="#1b3f5e"/>
          <path id="Trazado_214456" data-name="Trazado 214456" d="M63.238,52.853H46.475a2.822,2.822,0,0,1-2.822-2.822V13.69a2.822,2.822,0,0,1,5.644,0V47.21h13.94a2.822,2.822,0,0,1,0,5.643Z" transform="translate(3.762 0.054)" fill="#1b3f5e"/>
          <path id="Trazado_214457" data-name="Trazado 214457" d="M46.475,82.067a2.822,2.822,0,0,1-2.822-2.822V71.18a2.822,2.822,0,0,1,5.644,0v8.065A2.822,2.822,0,0,1,46.475,82.067Z" transform="translate(3.762 7.127)" fill="#1b3f5e"/>
          <path id="Trazado_214458" data-name="Trazado 214458" d="M21.887,48.871H13.944a2.822,2.822,0,0,1,0-5.644h7.943a2.822,2.822,0,1,1,0,5.644Z" transform="translate(-0.241 4.035)" fill="#1b3f5e"/>
          <path id="Trazado_214459" data-name="Trazado 214459" d="M79.6,48.871h-7.94a2.822,2.822,0,0,1,0-5.644H79.6a2.822,2.822,0,0,1,0,5.644Z" transform="translate(6.861 4.035)" fill="#1b3f5e"/>
          <path id="Trazado_214460" data-name="Trazado 214460" d="M28.322,32.289a2.812,2.812,0,0,1-1.9-.739l-5.865-5.36a2.822,2.822,0,0,1,3.808-4.165l5.865,5.36a2.822,2.822,0,0,1-1.906,4.9Z" transform="translate(0.807 1.335)" fill="#1b3f5e"/>
          <path id="Trazado_214461" data-name="Trazado 214461" d="M70.926,71.231a2.812,2.812,0,0,1-1.9-.739L63.16,65.134a2.822,2.822,0,1,1,3.808-4.165l5.863,5.358a2.821,2.821,0,0,1-1.9,4.9Z" transform="translate(6.049 6.127)" fill="#1b3f5e"/>
          <path id="Trazado_214462" data-name="Trazado 214462" d="M24.507,73.336a2.821,2.821,0,0,1-2.08-4.727l5.364-5.859a2.821,2.821,0,1,1,4.162,3.81L26.589,72.42A2.809,2.809,0,0,1,24.507,73.336Z" transform="translate(1.059 6.325)" fill="#1b3f5e"/>
          <path id="Trazado_214463" data-name="Trazado 214463" d="M63.454,30.739a2.822,2.822,0,0,1-2.081-4.725l5.357-5.863A2.822,2.822,0,0,1,70.9,23.957l-5.359,5.862A2.811,2.811,0,0,1,63.454,30.739Z" transform="translate(5.851 1.083)" fill="#1b3f5e"/>
        </g>
      </g>
    </g>
  </g>
</svg>
