<svg xmlns="http://www.w3.org/2000/svg" width="477" height="307.006" viewBox="0 0 477 307.006">
  <g id="Grupo_142192" data-name="Grupo 142192" transform="translate(-810 -955.994)">
    <g id="Grupo_141779" data-name="Grupo 141779" transform="translate(810 955.994)">
      <path id="Trazado_114972" data-name="Trazado 114972" d="M20.455,93.684H.864S.155,74.838.341,75s-.175,0-.175,0L13.414,46.842,0,18.333H.341L.181,0H20.455l22.04,46.842Z" transform="translate(0 0)" fill="#fffcdd"/>
      <path id="Trazado_114973" data-name="Trazado 114973" d="M29.081,93.684H0L22.04,46.842,0,0H29.081l22.04,46.842Z" transform="translate(42.495)" fill="#fffcdd"/>
      <path id="Trazado_114974" data-name="Trazado 114974" d="M29.081,93.684H0L22.04,46.842,0,0H29.081l22.04,46.842Z" transform="translate(93.616)" fill="#fffcdd"/>
      <path id="Trazado_114975" data-name="Trazado 114975" d="M29.081,93.684H0L22.04,46.842,0,0H29.081l22.04,46.842Z" transform="translate(144.737)" fill="#fffcdd"/>
      <path id="Trazado_114976" data-name="Trazado 114976" d="M29.081,93.684H0L22.04,46.842,0,0H29.081l22.04,46.842Z" transform="translate(195.857)" fill="#fffcdd"/>
      <path id="Trazado_114977" data-name="Trazado 114977" d="M29.081,93.684H0L22.04,46.842,0,0H29.081l22.04,46.842Z" transform="translate(246.978)" fill="#fffcdd"/>
      <path id="Trazado_114978" data-name="Trazado 114978" d="M29.082,93.684H0L22.04,46.842,0,0H29.082l22.04,46.842Z" transform="translate(298.099 0)" fill="#fffcdd"/>
      <path id="Trazado_114979" data-name="Trazado 114979" d="M29.081,93.684H0L22.04,46.842,0,0H29.081l22.04,46.842Z" transform="translate(349.22 0)" fill="#fffcdd"/>
    </g>
    <g id="Rectángulo_42134" data-name="Rectángulo 42134" transform="translate(810 956)" fill="rgba(255,255,255,0)" stroke="rgba(112,112,112,0)" stroke-width="1">
      <rect width="477" height="307" stroke="none"/>
      <rect x="0.5" y="0.5" width="476" height="306" fill="none"/>
    </g>
  </g>
</svg>
