<svg xmlns="http://www.w3.org/2000/svg" xmlns:xlink="http://www.w3.org/1999/xlink" width="399.75" height="306.853" viewBox="0 0 399.75 306.853">
  <defs>
    <clipPath id="clip-path">
      <rect id="Rectángulo_42077" data-name="Rectángulo 42077" width="240.357" height="275.516" fill="none"/>
    </clipPath>
    <clipPath id="clip-path-3">
      <rect id="Rectángulo_42059" data-name="Rectángulo 42059" width="179.694" height="273.11" fill="none"/>
    </clipPath>
    <clipPath id="clip-path-4">
      <rect id="Rectángulo_42060" data-name="Rectángulo 42060" width="126.56" height="179.286" fill="none"/>
    </clipPath>
    <clipPath id="clip-path-5">
      <path id="Trazado_214659" data-name="Trazado 214659" d="M65.921,203.5c0,37.975,26.828,84.247,59.92,103.353s59.92,3.811,59.92-34.163-26.827-84.246-59.92-103.352c-9.671-5.584-18.808-8.229-26.9-8.229-19.587,0-33.025,15.516-33.025,42.392" transform="translate(-65.921 -161.106)" fill="none"/>
    </clipPath>
    <linearGradient id="linear-gradient" x1="-0.409" y1="0.742" x2="-0.403" y2="0.742" gradientUnits="objectBoundingBox">
      <stop offset="0" stop-color="#311b61"/>
      <stop offset="0.215" stop-color="#280d51"/>
      <stop offset="0.495" stop-color="#200041"/>
      <stop offset="1" stop-color="#0f001f"/>
    </linearGradient>
    <clipPath id="clip-path-7">
      <rect id="Rectángulo_42075" data-name="Rectángulo 42075" width="1.968" height="2.528" fill="none"/>
    </clipPath>
  </defs>
  <g id="Grupo_142191" data-name="Grupo 142191" transform="translate(-285.25 -956.163)">
    <g id="Grupo_141781" data-name="Grupo 141781" transform="translate(285.25 1112.807)">
      <path id="Floor" d="M70.7,340.012c-78.056-29.33-78.056-76.884,0-106.214s204.609-29.33,282.666,0,78.056,76.883,0,106.214S148.758,369.343,70.7,340.012Z" transform="translate(-12.16 -211.801)" fill="#f0f0f0"/>
    </g>
    <g id="Grupo_142079" data-name="Grupo 142079" transform="translate(365 956.163)">
      <g id="Grupo_142078" data-name="Grupo 142078" clip-path="url(#clip-path)">
        <g id="Grupo_142070" data-name="Grupo 142070">
          <g id="Grupo_142069" data-name="Grupo 142069" clip-path="url(#clip-path)">
            <path id="Trazado_214638" data-name="Trazado 214638" d="M242.376,274.954,80.827,181.629c-6.254-3.611-11.324-13.3-11.324-21.638V13.031c0-8.339,5.07-12.172,11.324-8.561L242.376,97.8c6.254,3.611,11.325,13.3,11.325,21.638v146.96c0,8.339-5.071,12.172-11.325,8.561" transform="translate(-17.822 -0.798)" fill="#d1ebff"/>
            <path id="Trazado_214639" data-name="Trazado 214639" d="M248.33,94.685,86.781,1.359C84.306-.069,82.017-.333,80.154.387c-.236.091-4.662,2.378-4.885,2.5l-.01.007c1.929-.938,4.377-.762,7.045.778L243.852,97c6.254,3.61,11.325,13.3,11.325,21.638V265.6c0,5.2-1.975,8.653-4.981,9.633a1.887,1.887,0,0,0,.993-.338c.143-.083,4.838-2.625,4.975-2.721,2.151-1.507,3.491-4.6,3.491-8.888V116.322c0-8.339-5.071-18.027-11.325-21.638" transform="translate(-19.297 0)" fill="#255680"/>
            <path id="Trazado_214640" data-name="Trazado 214640" d="M247.061,95.5,85.512,2.177C83.038.749,80.749.486,78.886,1.2c-.237.092-3.394,1.77-3.618,1.892l-.01.007c1.93-.937,4.377-.762,7.045.779L243.852,97.208Z" transform="translate(-19.297 -0.21)" fill="#255680"/>
            <g id="Grupo_142065" data-name="Grupo 142065" transform="translate(56.728 2.054)" style="mix-blend-mode: screen;isolation: isolate">
              <g id="Grupo_142064" data-name="Grupo 142064">
                <g id="Grupo_142063" data-name="Grupo 142063" clip-path="url(#clip-path-3)">
                  <path id="Trazado_214641" data-name="Trazado 214641" d="M244.66,97.435,83.111,4.11c-2.565-1.48-4.922-1.692-6.82-.871a8.357,8.357,0,0,1,5.462,1.279L243.3,97.842c6.254,3.611,11.324,13.3,11.324,21.638V266.44c0,4.92-1.772,8.253-4.5,9.433,3.494-.554,5.862-4.143,5.862-9.841V119.072c0-8.339-5.071-18.027-11.325-21.638" transform="translate(-76.29 -2.762)" fill="#fff"/>
                </g>
              </g>
            </g>
            <path id="Trazado_214642" data-name="Trazado 214642" d="M78.056,34.024V167.918c0,6.54,3.113,12.932,8.146,16.131l159.826,92.318.265.152a2.167,2.167,0,0,0,3.241-1.881V133.084Z" transform="translate(-20.015 -8.724)" fill="#1b3f5e"/>
            <path id="Trazado_214643" data-name="Trazado 214643" d="M249.3,275.314l-.265-.152L89.214,182.844c-5.033-3.2-8.146-9.591-8.146-16.131V35.765l-3.012-1.74V167.918c0,6.541,3.113,12.932,8.146,16.131l159.826,92.318.265.152a2.162,2.162,0,0,0,3.108-1.167c-.031-.016-.065-.021-.1-.039" transform="translate(-20.015 -8.724)" fill="#001a46"/>
            <path id="Trazado_214644" data-name="Trazado 214644" d="M296.566,144.863a6.866,6.866,0,0,0,3.116,5.375c1.721.994,3.117.2,3.117-1.776a6.869,6.869,0,0,0-3.117-5.376c-1.721-.993-3.116-.2-3.116,1.777" transform="translate(-76.044 -36.579)" fill="#ffeb37"/>
            <path id="Trazado_214645" data-name="Trazado 214645" d="M285.756,138.583a6.868,6.868,0,0,0,3.116,5.375c1.721.994,3.117.2,3.117-1.776a6.869,6.869,0,0,0-3.117-5.376c-1.721-.993-3.116-.2-3.116,1.777" transform="translate(-73.272 -34.969)" fill="#d84318"/>
            <path id="Trazado_214646" data-name="Trazado 214646" d="M274.945,132.3a6.868,6.868,0,0,0,3.116,5.375c1.721.994,3.117.2,3.117-1.776a6.868,6.868,0,0,0-3.117-5.376c-1.721-.993-3.116-.2-3.116,1.777" transform="translate(-70.5 -33.359)" fill="#1b3f5e"/>
            <g id="Grupo_142068" data-name="Grupo 142068" transform="translate(69.011 58.988)" style="mix-blend-mode: multiply;isolation: isolate">
              <g id="Grupo_142067" data-name="Grupo 142067">
                <g id="Grupo_142066" data-name="Grupo 142066" clip-path="url(#clip-path-4)">
                  <path id="Trazado_214647" data-name="Trazado 214647" d="M92.809,79.329l117.13,66.983c5.208,3.007,9.429,11.073,9.429,18.018v86.025c0,6.944-4.221,10.136-9.429,7.129L92.809,190.5Z" transform="translate(-92.809 -79.329)" fill="#8bacc7"/>
                </g>
              </g>
            </g>
            <path id="Trazado_214648" data-name="Trazado 214648" d="M211.832,287.186,51.187,194.763V51.913l160.645,92.423Z" transform="translate(-13.125 -13.311)" fill="#255680"/>
            <path id="Trazado_214649" data-name="Trazado 214649" d="M55.009,194.812V58.521l154.96,89.154v136.29Z" transform="translate(-14.105 -15.006)" fill="#fff"/>
            <path id="Trazado_214650" data-name="Trazado 214650" d="M55.009,73.932V58.521l154.96,89.154v15.41Z" transform="translate(-14.105 -15.006)" fill="#d84318"/>
            <rect id="Rectángulo_42061" data-name="Rectángulo 42061" width="1.801" height="182.36" transform="matrix(0.495, -0.869, 0.869, 0.495, 38.73, 59.03)" fill="#255680"/>
            <rect id="Rectángulo_42062" data-name="Rectángulo 42062" width="1.801" height="182.36" transform="matrix(0.495, -0.869, 0.869, 0.495, 38.73, 74.19)" fill="#255680"/>
            <rect id="Rectángulo_42063" data-name="Rectángulo 42063" width="1.801" height="182.36" transform="matrix(0.495, -0.869, 0.869, 0.495, 38.73, 89.349)" fill="#255680"/>
            <rect id="Rectángulo_42064" data-name="Rectángulo 42064" width="1.801" height="182.36" transform="matrix(0.495, -0.869, 0.869, 0.495, 38.73, 104.509)" fill="#255680"/>
            <rect id="Rectángulo_42065" data-name="Rectángulo 42065" width="1.801" height="182.36" transform="matrix(0.495, -0.869, 0.869, 0.495, 38.73, 119.668)" fill="#255680"/>
            <rect id="Rectángulo_42066" data-name="Rectángulo 42066" width="1.801" height="182.36" transform="matrix(0.495, -0.869, 0.869, 0.495, 38.73, 134.828)" fill="#255680"/>
            <rect id="Rectángulo_42067" data-name="Rectángulo 42067" width="1.801" height="182.36" transform="matrix(0.495, -0.869, 0.869, 0.495, 38.73, 149.987)" fill="#255680"/>
            <rect id="Rectángulo_42068" data-name="Rectángulo 42068" width="1.801" height="182.36" transform="matrix(0.495, -0.869, 0.869, 0.495, 38.73, 165.147)" fill="#255680"/>
            <rect id="Rectángulo_42069" data-name="Rectángulo 42069" width="1.801" height="182.36" transform="matrix(0.495, -0.869, 0.869, 0.495, 38.73, 180.306)" fill="#255680"/>
            <rect id="Rectángulo_42070" data-name="Rectángulo 42070" width="1.802" height="137.899" transform="translate(69.899 60.024)" fill="#255680"/>
            <rect id="Rectángulo_42071" data-name="Rectángulo 42071" width="1.802" height="137.9" transform="translate(102.112 78.5)" fill="#255680"/>
            <rect id="Rectángulo_42072" data-name="Rectángulo 42072" width="1.802" height="137.9" transform="translate(134.326 96.975)" fill="#255680"/>
            <rect id="Rectángulo_42073" data-name="Rectángulo 42073" width="1.802" height="137.901" transform="translate(166.54 115.451)" fill="#255680"/>
            <path id="Trazado_214651" data-name="Trazado 214651" d="M55.343,94.442V80.995l53.227,30.088V124.53Z" transform="translate(-14.191 -20.768)" fill="#ffeb37"/>
            <path id="Trazado_214652" data-name="Trazado 214652" d="M96.2,138.163V124.715l80.889,46.2v13.448Z" transform="translate(-24.666 -31.979)" fill="#ffeb37"/>
            <path id="Trazado_214653" data-name="Trazado 214653" d="M181.517,288.379V274.931l53.227,30.088v13.448Z" transform="translate(-46.544 -70.496)" fill="#ffeb37"/>
            <path id="Trazado_214654" data-name="Trazado 214654" d="M54.865,155.365V141.917L108.092,172v13.448Z" transform="translate(-14.068 -36.389)" fill="#ffeb37"/>
            <path id="Trazado_214655" data-name="Trazado 214655" d="M54.865,195.979V182.531L84.157,198.9v13.448Z" transform="translate(-14.068 -46.804)" fill="#ffeb37"/>
            <path id="Trazado_214656" data-name="Trazado 214656" d="M167.839,199.795V186.347l53.227,30.088v13.448Z" transform="translate(-43.036 -47.782)" fill="#ffeb37"/>
            <path id="Trazado_214657" data-name="Trazado 214657" d="M141.387,162.617c-15.6-9.006-29.8-10.366-40.463-5.313l-8.577,4.858v.045c10.639-4.944,24.767-3.544,40.27,5.407,33.093,19.106,59.92,65.379,59.92,103.353,0,18.433-6.321,31.521-16.612,37.926l5.75-3.36c12.059-5.615,19.631-19.388,19.631-39.562,0-37.974-26.828-84.247-59.92-103.353" transform="translate(-23.679 -39.588)" fill="#142f47"/>
          </g>
        </g>
        <g id="Grupo_142072" data-name="Grupo 142072" transform="translate(49.018 119.796)">
          <g id="Grupo_142071" data-name="Grupo 142071" clip-path="url(#clip-path-5)">
            <path id="Trazado_214658" data-name="Trazado 214658" d="M65.921,68.053l119.841,69.192V371.289L65.921,302.1Z" transform="translate(-65.921 -137.246)" fill="url(#linear-gradient)"/>
          </g>
        </g>
        <g id="Grupo_142077" data-name="Grupo 142077">
          <g id="Grupo_142076" data-name="Grupo 142076" clip-path="url(#clip-path)">
            <path id="Trazado_214660" data-name="Trazado 214660" d="M132.929,168.653c-16.783-9.69-31.951-10.526-42.829-4.049,10.808-5.918,25.611-4.872,41.941,4.557,33.093,19.106,59.92,65.378,59.92,103.352,0,18.716-6.52,31.918-17.091,38.212,11.094-6.074,17.979-19.485,17.979-38.719,0-37.974-26.827-84.247-59.92-103.353" transform="translate(-23.103 -41.136)" fill="#2672ab"/>
            <path id="Trazado_214661" data-name="Trazado 214661" d="M36.8,247.066a.9.9,0,0,1-.852-.609q-.59-1.721-1.135-3.445a.9.9,0,0,1,1.718-.542q.538,1.7,1.121,3.4a.9.9,0,0,1-.559,1.144.916.916,0,0,1-.292.049m-2.669-8.6a.9.9,0,0,1-.867-.658q-.489-1.754-.931-3.508a.9.9,0,0,1,1.749-.44q.435,1.734.917,3.465a.9.9,0,0,1-.627,1.108.864.864,0,0,1-.241.033m-2.144-8.75a.9.9,0,0,1-.88-.715q-.378-1.783-.7-3.563a.9.9,0,0,1,.725-1.048.913.913,0,0,1,1.048.725q.322,1.754.694,3.513a.9.9,0,0,1-.7,1.068.951.951,0,0,1-.188.019m-1.566-8.871a.9.9,0,0,1-.89-.774q-.257-1.806-.454-3.606a.9.9,0,0,1,1.791-.2q.2,1.769.447,3.549a.9.9,0,0,1-.765,1.019,1.1,1.1,0,0,1-.129.009M29.5,211.88a.9.9,0,0,1-.9-.842q-.116-1.824-.175-3.63a.9.9,0,0,1,.871-.931.892.892,0,0,1,.931.871q.058,1.781.172,3.573a.9.9,0,0,1-.84.958H29.5m-.207-9.007h-.017a.9.9,0,0,1-.883-.918q.037-1.836.141-3.635a.865.865,0,0,1,.95-.848.9.9,0,0,1,.848.95q-.1,1.768-.137,3.568a.9.9,0,0,1-.9.883m.6-8.983c-.036,0-.071,0-.106-.005a.9.9,0,0,1-.792-1q.211-1.824.491-3.606a.9.9,0,0,1,1.781.278q-.274,1.75-.48,3.535a.9.9,0,0,1-.894.8m1.49-8.88a.961.961,0,0,1-.2-.022.9.9,0,0,1-.683-1.077q.4-1.792.874-3.536a.9.9,0,1,1,1.739.471q-.462,1.705-.854,3.459a.9.9,0,0,1-.88.7m2.455-8.662a.915.915,0,0,1-.3-.049.9.9,0,0,1-.556-1.147q.6-1.737,1.283-3.415a.9.9,0,1,1,1.671.676q-.661,1.636-1.251,3.331a.9.9,0,0,1-.851.605m3.48-8.3a.9.9,0,0,1-.808-1.3q.821-1.647,1.715-3.229a.9.9,0,0,1,1.57.887q-.874,1.54-1.67,3.144a.9.9,0,0,1-.808.5" transform="translate(-7.28 -41.81)" fill="#ffeb37"/>
            <path id="Trazado_214662" data-name="Trazado 214662" d="M185.762,272.688c0,37.974-26.827,53.269-59.92,34.163S65.921,241.473,65.921,203.5s26.827-53.27,59.92-34.163,59.92,65.379,59.92,103.353" transform="translate(-16.903 -41.31)" fill="#1b3f5e"/>
            <path id="Trazado_214663" data-name="Trazado 214663" d="M183.636,272.253c0,35.918-25.375,50.385-56.676,32.313s-56.676-61.839-56.676-97.757,25.375-50.385,56.676-32.314,56.676,61.84,56.676,97.758" transform="translate(-18.022 -42.747)" fill="#f0f8ff"/>
            <path id="Trazado_214664" data-name="Trazado 214664" d="M178.283,271.156c0,30.741-21.717,43.123-48.506,27.655S81.27,245.886,81.27,215.145s21.717-43.123,48.507-27.656,48.506,52.926,48.506,83.667" transform="translate(-20.839 -46.367)" fill="#d84318"/>
            <path id="Trazado_214665" data-name="Trazado 214665" d="M172.262,269.921c0,24.916-17.6,34.952-39.316,22.415s-39.316-42.9-39.316-67.814,17.6-34.952,39.316-22.415,39.316,42.9,39.316,67.814" transform="translate(-24.008 -50.439)" fill="#f0f8ff"/>
            <path id="Trazado_214666" data-name="Trazado 214666" d="M166.575,268.755c0,19.415-13.716,27.235-30.636,17.467S105.3,252.795,105.3,233.38s13.716-27.235,30.636-17.467,30.636,33.427,30.636,52.842" transform="translate(-27.001 -54.284)" fill="#d84318"/>
            <path id="Trazado_214667" data-name="Trazado 214667" d="M161.223,267.658c0,14.237-10.058,19.973-22.466,12.809s-22.467-24.513-22.467-38.75,10.058-19.973,22.467-12.809,22.466,24.512,22.466,38.75" transform="translate(-29.818 -57.904)" fill="#f0f8ff"/>
            <path id="Trazado_214668" data-name="Trazado 214668" d="M127.834,305.394c-31.3-18.071-56.676-61.84-56.676-97.758,0-17.147,5.787-29.4,15.237-35.564-9.967,5.967-16.112,18.441-16.112,36.111,0,35.918,25.375,79.686,56.677,97.757,16.358,9.444,31.094,10,41.439,3.251-10.293,6.161-24.663,5.384-40.565-3.8" transform="translate(-18.022 -44.122)" fill="#a8cff0"/>
            <path id="Trazado_214669" data-name="Trazado 214669" d="M133.821,292.672c-21.713-12.536-39.316-42.9-39.316-67.814,0-11.941,4.05-20.452,10.65-24.711-7.12,4.054-11.525,12.793-11.525,25.257,0,24.916,17.6,55.277,39.316,67.814,11.308,6.529,21.493,6.924,28.666,2.3-7.115,4.05-16.94,3.423-27.792-2.842" transform="translate(-24.008 -51.321)" fill="#a8cff0"/>
            <path id="Trazado_214670" data-name="Trazado 214670" d="M139.631,280.413c-12.407-7.164-22.466-24.513-22.466-38.75,0-6.638,2.188-11.425,5.778-13.921-4.108,2.3-6.654,7.307-6.654,14.468,0,14.237,10.058,31.587,22.467,38.75,6.622,3.824,12.575,3.97,16.687,1.112-4.059,2.273-9.645,1.9-15.812-1.659" transform="translate(-29.818 -58.396)" fill="#a8cff0"/>
            <path id="Trazado_214671" data-name="Trazado 214671" d="M154.694,266.32c0,7.923-5.6,11.114-12.5,7.128s-12.5-13.641-12.5-21.563,5.6-11.114,12.5-7.128,12.5,13.64,12.5,21.563" transform="translate(-33.255 -62.319)" fill="#d84318"/>
            <g id="Grupo_142075" data-name="Grupo 142075" transform="translate(108.305 195.236)" opacity="0.5">
              <g id="Grupo_142074" data-name="Grupo 142074">
                <g id="Grupo_142073" data-name="Grupo 142073" clip-path="url(#clip-path-7)">
                  <path id="Trazado_214672" data-name="Trazado 214672" d="M147.62,264.392c0,.624-.44.875-.984.561a2.169,2.169,0,0,1-.985-1.7c0-.624.441-.875.985-.561a2.168,2.168,0,0,1,.984,1.7" transform="translate(-145.652 -262.56)" fill="#231f20"/>
                </g>
              </g>
            </g>
            <path id="Trazado_214673" data-name="Trazado 214673" d="M143.688,244.758c-3.122-1.8-5.975-2.133-8.167-1.226,2.061-.527,4.595-.08,7.336,1.5,6.9,3.986,12.5,13.64,12.5,21.563,0,4.34-1.681,7.255-4.335,8.353,3.129-.8,5.166-3.853,5.166-8.63,0-7.923-5.6-17.577-12.5-21.563" transform="translate(-34.75 -62.32)" fill="#d62d69"/>
            <path id="Trazado_214674" data-name="Trazado 214674" d="M7.724,339.445l-5.368-.723A2.719,2.719,0,0,1,2,333.4L32.1,325.179Z" transform="translate(0 -83.381)" fill="#255680"/>
            <path id="Trazado_214675" data-name="Trazado 214675" d="M7.936,338.919,2.569,338.2A2.7,2.7,0,0,1,.317,334.74a2.719,2.719,0,0,0,2.041,3.981l5.368.723L32.1,325.178l-1.29.352Z" transform="translate(-0.002 -83.38)" fill="#f0f8ff"/>
            <path id="Trazado_214676" data-name="Trazado 214676" d="M2.533,338.439l5.368.723,23.294-13.636-.341.094L7.982,339.009l-5.368-.724A2.7,2.7,0,0,1,.362,334.83c-.032.061-.057.125-.084.188a2.693,2.693,0,0,0,2.255,3.421" transform="translate(-0.048 -83.47)" fill="#f0f8ff"/>
            <path id="Trazado_214677" data-name="Trazado 214677" d="M138.812,264.282a.274.274,0,0,1-.11.248s-3.051,4.154-10.521,8.481c-10.672,6.181-12.379,6.6-12.379,6.6-.288.161-.107-.2-.536-.445a3.445,3.445,0,0,1-1.564-2.7c0-.489-.453-.494-.175-.657,0,0,1.236-1.208,11.92-7.389,7.5-4.336,12.7-4.841,12.7-4.841a.279.279,0,0,1,.274.03.861.861,0,0,1,.391.674" transform="translate(-29.087 -67.579)" fill="#ffeb37"/>
            <path id="Trazado_214678" data-name="Trazado 214678" d="M116.069,282.826c0,.991-.7,1.39-1.564.892a3.446,3.446,0,0,1-1.564-2.7c0-.991.7-1.39,1.564-.892a3.446,3.446,0,0,1,1.564,2.7" transform="translate(-28.96 -71.774)" fill="#ffde17"/>
            <path id="Trazado_214679" data-name="Trazado 214679" d="M88.112,282.921a1.049,1.049,0,0,1-.419.948L7.387,331.038c-.27.151-.1-.191-.507-.428a3.29,3.29,0,0,1-1.492-2.574c0-.468-.433-.472-.167-.628l80.357-47.178a1.065,1.065,0,0,1,1.043.115,3.29,3.29,0,0,1,1.492,2.574" transform="translate(-1.316 -71.832)" fill="#1b3f5e"/>
            <path id="Trazado_214680" data-name="Trazado 214680" d="M7.647,346.372c0,.946-.668,1.327-1.492.851a3.291,3.291,0,0,1-1.493-2.575c0-.946.668-1.327,1.493-.851a3.29,3.29,0,0,1,1.492,2.574" transform="translate(-1.195 -88.102)" fill="#f0f8ff"/>
            <path id="Trazado_214681" data-name="Trazado 214681" d="M7.927,336.211,32.819,321.87,13.392,320.28A8.4,8.4,0,0,0,6.057,333.79Z" transform="translate(-1.098 -82.116)" fill="#f0f8ff"/>
            <path id="Trazado_214682" data-name="Trazado 214682" d="M8.457,336.1l24.892-14.341-19.427-1.591a8.4,8.4,0,0,0-7.335,13.511Z" transform="translate(-1.234 -82.089)" fill="#255680"/>
            <path id="Trazado_214683" data-name="Trazado 214683" d="M6.955,333.841a8.4,8.4,0,0,1,7.335-13.512l18.865,1.545.194-.112-19.427-1.591a8.4,8.4,0,0,0-7.335,13.512l1.87,2.42.17-.1Z" transform="translate(-1.234 -82.089)" fill="#f0f8ff"/>
            <path id="Trazado_214684" data-name="Trazado 214684" d="M11.3,340.776l.611,2.2a7.027,7.027,0,0,0,12.7,1.889l11.583-18.2Z" transform="translate(-2.898 -83.76)" fill="#f0f8ff"/>
            <path id="Trazado_214685" data-name="Trazado 214685" d="M11.821,340.352l.61,2.2a7.026,7.026,0,0,0,12.7,1.889l11.584-18.2Z" transform="translate(-3.031 -83.651)" fill="#255680"/>
            <path id="Trazado_214686" data-name="Trazado 214686" d="M25.339,344.069a7.026,7.026,0,0,1-12.7-1.889l-.551-1.982-.27.153.61,2.2a7.026,7.026,0,0,0,12.7,1.89l11.584-18.2-.037.022Z" transform="translate(-3.031 -83.651)" fill="#f0f8ff"/>
            <path id="Trazado_214687" data-name="Trazado 214687" d="M36.677,302.773a.9.9,0,0,1-.454-1.678l3.113-1.816a.9.9,0,1,1,.908,1.555l-3.113,1.816a.884.884,0,0,1-.454.123m7.782-4.54a.9.9,0,0,1-.454-1.678l3.112-1.816a.9.9,0,1,1,.908,1.556l-3.112,1.815a.886.886,0,0,1-.454.123m7.78-4.54a.9.9,0,0,1-.454-1.678L54.9,290.2a.9.9,0,0,1,.908,1.555l-3.113,1.814a.89.89,0,0,1-.454.123m7.782-4.537a.9.9,0,0,1-.454-1.678l3.113-1.816a.9.9,0,1,1,.908,1.555l-3.113,1.816a.881.881,0,0,1-.454.123" transform="translate(-9.174 -73.216)" fill="#d84318"/>
          </g>
        </g>
      </g>
    </g>
  </g>
</svg>
