<svg xmlns="http://www.w3.org/2000/svg" width="93.927" height="90.994" viewBox="0 0 93.927 90.994">
  <path id="Trazado_214369" data-name="Trazado 214369" d="M-11724.4-11134.057a1,1,0,0,1-1-.988l-.055-5a1,1,0,0,1,.988-1.011h.012a1,1,0,0,1,1,.988l.055,5a1,1,0,0,1-.989,1.011Zm6.332-3.072a1,1,0,0,1-.822-.431,1,1,0,0,1,.251-1.392l4.107-2.851a1,1,0,0,1,1.392.251,1,1,0,0,1-.251,1.392l-4.107,2.852A1,1,0,0,1-11718.065-11137.129Zm11.5-7.983a1,1,0,0,1-.823-.43,1,1,0,0,1,.252-1.392l4.107-2.852a1,1,0,0,1,1.392.251,1,1,0,0,1-.251,1.392l-4.107,2.852A.993.993,0,0,1-11706.564-11145.112Zm-17.987-2.943a1,1,0,0,1-1-.989l-.056-5a1,1,0,0,1,.989-1.011h.012a1,1,0,0,1,1,.989l.056,5a1,1,0,0,1-.989,1.011Zm29.487-5.04a1,1,0,0,1-.822-.43,1,1,0,0,1,.252-1.392l4.107-2.852a1,1,0,0,1,1.392.252,1,1,0,0,1-.252,1.392l-4.107,2.851A.991.991,0,0,1-11695.064-11153.1Zm11.5-7.983a1,1,0,0,1-.822-.43,1,1,0,0,1,.252-1.392l4.107-2.851a1,1,0,0,1,1.392.251,1,1,0,0,1-.252,1.392l-4.107,2.852A1,1,0,0,1-11683.563-11161.079Zm-41.144-.976a1,1,0,0,1-1-.989l-.056-5a1,1,0,0,1,.989-1.012h.011a1,1,0,0,1,1,.989l.055,5a1,1,0,0,1-.988,1.011Zm52.645-7.007a1,1,0,0,1-.822-.43,1,1,0,0,1,.251-1.393l4.107-2.851a1,1,0,0,1,1.393.251,1,1,0,0,1-.252,1.392l-4.107,2.852A1,1,0,0,1-11672.062-11169.062Zm-52.8-6.992a1,1,0,0,1-1-.989l-.055-5a1,1,0,0,1,.988-1.012h.012a1,1,0,0,1,1,.989l.055,5a1,1,0,0,1-.989,1.011Zm64.3-.991a1,1,0,0,1-.822-.43,1,1,0,0,1,.251-1.392l4.107-2.852a1,1,0,0,1,1.392.252,1,1,0,0,1-.251,1.392l-4.107,2.851A.991.991,0,0,1-11660.562-11177.045Zm11.5-7.983a1,1,0,0,1-.822-.43,1,1,0,0,1,.251-1.392l4.107-2.852a1,1,0,0,1,1.392.252,1,1,0,0,1-.251,1.392l-4.107,2.851A.993.993,0,0,1-11649.061-11185.028Zm-75.955-5.024a1,1,0,0,1-1-.989l-.056-5a1,1,0,0,1,.989-1.011h.012a1,1,0,0,1,1,.989l.056,5a1,1,0,0,1-.989,1.012Zm87.456-2.958a1,1,0,0,1-.822-.431,1,1,0,0,1,.251-1.392l4.107-2.851a1,1,0,0,1,1.392.251,1,1,0,0,1-.251,1.392l-4.107,2.852A1,1,0,0,1-11637.56-11193.011Zm-87.611-11.041a1,1,0,0,1-1-.989l-.056-5a1,1,0,0,1,.989-1.011h.011a1,1,0,0,1,1,.989l.055,5a1,1,0,0,1-.988,1.012Zm-.154-14a1,1,0,0,1-1-.989l-.055-5a1,1,0,0,1,.988-1.011h.012a1,1,0,0,1,1,.989l.055,5a1,1,0,0,1-.989,1.011Z" transform="translate(11726.38 11225.051)" fill="#d84318"/>
</svg>
