<svg xmlns="http://www.w3.org/2000/svg" width="83.671" height="38.119" viewBox="0 0 83.671 38.119">
  <path id="Trazado_214365" data-name="Trazado 214365" d="M-11390.451-11270.525a.994.994,0,0,1-.506-.138l-4.31-2.536a1,1,0,0,1-.354-1.369,1,1,0,0,1,1.369-.354l4.31,2.536a1,1,0,0,1,.354,1.368A1,1,0,0,1-11390.451-11270.525Zm-11.2-6.594a1,1,0,0,1-.507-.138l-4.309-2.536a1,1,0,0,1-.354-1.369,1,1,0,0,1,1.369-.354l4.309,2.536a1,1,0,0,1,.354,1.368A1,1,0,0,1-11401.654-11277.119Zm-11.2-6.594a1,1,0,0,1-.506-.139l-4.31-2.536a1,1,0,0,1-.354-1.368,1,1,0,0,1,1.369-.355l4.309,2.536a1,1,0,0,1,.355,1.369A1,1,0,0,1-11412.858-11283.713Zm-11.2-6.594a1,1,0,0,1-.507-.139l-4.309-2.536a1,1,0,0,1-.354-1.369,1,1,0,0,1,1.368-.354l4.31,2.536a1,1,0,0,1,.354,1.369A1,1,0,0,1-11424.062-11290.307Zm-48.059-5.821a1,1,0,0,1-.812-.416,1,1,0,0,1,.228-1.4l4.058-2.922a1,1,0,0,1,1.4.228,1,1,0,0,1-.228,1.4l-4.058,2.922A1,1,0,0,1-11472.12-11296.128Zm36.854-.772a1,1,0,0,1-.506-.139l-4.31-2.536a1,1,0,0,1-.354-1.369,1,1,0,0,1,1.369-.354l4.309,2.536a1,1,0,0,1,.355,1.369A1,1,0,0,1-11435.266-11296.9Zm-11.2-6.594a1,1,0,0,1-.507-.139l-4.309-2.536a1,1,0,0,1-.354-1.369,1,1,0,0,1,1.368-.354l4.31,2.536a1,1,0,0,1,.354,1.369A1,1,0,0,1-11446.469-11303.494Zm-15.1-.229a1,1,0,0,1-.812-.416,1,1,0,0,1,.228-1.4l4.058-2.922a1,1,0,0,1,1.4.228,1,1,0,0,1-.227,1.4l-4.058,2.922A1,1,0,0,1-11461.57-11303.724Z" transform="translate(11473.121 11308.645)" fill="#d84318"/>
</svg>
