<svg xmlns="http://www.w3.org/2000/svg" width="123.432" height="58.804" viewBox="0 0 123.432 58.804">
  <path id="Trazado_214364" data-name="Trazado 214364" d="M-11427.578-11290.963a.99.99,0,0,1-.5-.132l-2.557-1.458a1,1,0,0,1-.373-1.364,1,1,0,0,1,1.363-.373l1.979,1.129,1.1-.85a1,1,0,0,1,1.4.183,1,1,0,0,1-.182,1.4l-1.629,1.255A1,1,0,0,1-11427.578-11290.963Zm-9.506-5.423a.991.991,0,0,1-.5-.132l-4.343-2.478a1,1,0,0,1-.373-1.364,1,1,0,0,1,1.364-.373l4.343,2.478a1,1,0,0,1,.373,1.364A1,1,0,0,1-11437.084-11296.386Zm17.472-.716a1,1,0,0,1-.792-.39,1,1,0,0,1,.182-1.4l3.96-3.052a1,1,0,0,1,1.4.182,1,1,0,0,1-.182,1.4l-3.96,3.052A.992.992,0,0,1-11419.612-11297.1Zm-28.764-5.727a.987.987,0,0,1-.494-.132l-4.343-2.478a1,1,0,0,1-.373-1.364,1,1,0,0,1,1.363-.373l4.344,2.478a1,1,0,0,1,.373,1.364A1,1,0,0,1-11448.376-11302.828Zm39.062-2.209a1,1,0,0,1-.793-.39,1,1,0,0,1,.182-1.4l3.96-3.052a1,1,0,0,1,1.4.182,1,1,0,0,1-.182,1.4l-3.961,3.052A.992.992,0,0,1-11409.314-11305.037Zm-50.353-4.233a.991.991,0,0,1-.5-.132l-4.343-2.478a1,1,0,0,1-.373-1.364,1,1,0,0,1,1.364-.373l4.343,2.479a1,1,0,0,1,.373,1.364A1,1,0,0,1-11459.667-11309.271Zm60.649-3.7a1,1,0,0,1-.793-.39,1,1,0,0,1,.182-1.4l3.961-3.052a1,1,0,0,1,1.4.182,1,1,0,0,1-.182,1.4l-3.961,3.053A1,1,0,0,1-11399.018-11312.972Zm-71.941-2.741a1,1,0,0,1-.494-.131l-4.343-2.479a1,1,0,0,1-.373-1.363,1,1,0,0,1,1.363-.373l4.344,2.478a1,1,0,0,1,.373,1.364A1,1,0,0,1-11470.959-11315.713Zm82.238-5.194a1,1,0,0,1-.793-.39,1,1,0,0,1,.182-1.4l3.961-3.053a1,1,0,0,1,1.4.182,1,1,0,0,1-.182,1.4l-3.961,3.053A1,1,0,0,1-11388.721-11320.907Zm10.3-7.936a1,1,0,0,1-.792-.39,1,1,0,0,1,.182-1.4l3.96-3.053a1,1,0,0,1,1.4.182,1,1,0,0,1-.182,1.4l-3.96,3.052A1,1,0,0,1-11378.424-11328.843Zm10.3-7.936a1,1,0,0,1-.793-.39,1,1,0,0,1,.182-1.4l3.96-3.052a1,1,0,0,1,1.4.182,1,1,0,0,1-.182,1.4l-3.96,3.052A.992.992,0,0,1-11368.126-11336.778Zm10.3-7.936a1,1,0,0,1-.793-.39,1,1,0,0,1,.182-1.4l3.96-3.052a1,1,0,0,1,1.4.182,1,1,0,0,1-.182,1.4l-3.961,3.052A.992.992,0,0,1-11357.829-11344.714Z" transform="translate(11476.301 11349.767)" fill="#d84318"/>
</svg>
