<svg xmlns="http://www.w3.org/2000/svg" width="126" height="126" viewBox="0 0 126 126">
  <g id="Grupo_142189" data-name="Grupo 142189" transform="translate(-318 -4319)">
    <path id="Trazado_214464" data-name="Trazado 214464" d="M63,0A63,63,0,1,1,0,63,63,63,0,0,1,63,0Z" transform="translate(318 4319)" fill="#1b3f5e"/>
    <path id="Trazado_214465" data-name="Trazado 214465" d="M31.883,73.479l14.208-6.03a7.969,7.969,0,0,1-14.208,6.03ZM53.549,2.369c8.318,4.545,14.563,10.38,18.671,17.5s6.04,15.442,5.817,24.918a2.991,2.991,0,0,1-5.981-.141c.2-8.42-1.482-15.663-5.017-21.786s-8.968-11.2-16.359-15.238a2.991,2.991,0,1,1,2.868-5.25ZM17.058,20a23.229,23.229,0,0,1,30.308,10.95l.392.835L52.892,43.32l6.773,5.861a5.243,5.243,0,0,1,1.061,1.3l.234.456a4.985,4.985,0,0,1-2.541,6.576L17.236,75.736a4.985,4.985,0,0,1-7-4.557l0-9.344L5.274,50.7A23.217,23.217,0,0,1,17.058,20ZM10.739,48.269,16.21,60.562l0,9.084,38.346-16.97-6.591-5.7L42.319,34.277l-.339-.723A17.271,17.271,0,0,0,10.739,48.269ZM52.6,16.729a23.624,23.624,0,0,1,9.238,9.13,23.625,23.625,0,0,1,3.288,12.565,2.991,2.991,0,1,1-5.98-.146,17.649,17.649,0,0,0-2.489-9.428,17.646,17.646,0,0,0-6.921-6.869A2.991,2.991,0,0,1,52.6,16.729Z" transform="translate(340.348 4342.696)" fill="#fff"/>
  </g>
</svg>
