<svg xmlns="http://www.w3.org/2000/svg" width="126" height="126" viewBox="0 0 126 126">
  <g id="Grupo_142190" data-name="Grupo 142190" transform="translate(-318 -4319)">
    <circle id="Elipse_5437" data-name="Elipse 5437" cx="63" cy="63" r="63" transform="translate(318 4319)" fill="#1b3f5e"/>
    <g id="_icons" transform="translate(343.312 4348.848)">
      <path id="Trazado_214466" data-name="Trazado 214466" d="M12.741,62.95h44.4a10.379,10.379,0,0,0,10.383-8.235L71.1,40.393a12.319,12.319,0,0,0-1.79-9.309,11.214,11.214,0,0,0-8.593-4.3H50.694L53.2,21.417c1.79-2.506,2.506-6.087,2.506-9.309a7.474,7.474,0,0,0-4.655-7.161L49.62,4.231C46.4,2.441,42.1,3.515,39.594,6.379L21.334,27.862c-.358-.716-.716-.716-1.432-.716H12.741A10.55,10.55,0,0,0,2,37.887V52.208A10.55,10.55,0,0,0,12.741,62.95ZM23.483,36.1,45.323,10.676a1.315,1.315,0,0,1,1.074-.358l1.432.716c.358,0,.716.358.716,1.074a18.842,18.842,0,0,1-1.432,6.445L41.743,28.936c-.716,1.074-.358,2.506,0,3.58a3.76,3.76,0,0,0,3.222,1.79H60.719a3.256,3.256,0,0,1,2.864,1.432,3.434,3.434,0,0,1,.716,3.222l-3.58,14.322a3.855,3.855,0,0,1-3.58,2.864H23.483ZM9.161,37.887a3.383,3.383,0,0,1,3.58-3.58h3.58V55.789h-3.58a3.383,3.383,0,0,1-3.58-3.58Z" transform="translate(0 0)" fill="#fff"/>
    </g>
  </g>
</svg>
