<svg xmlns="http://www.w3.org/2000/svg" width="126" height="126" viewBox="0 0 126 126">
  <g id="Grupo_142191" data-name="Grupo 142191" transform="translate(-318 -4319)">
    <path id="Trazado_214467" data-name="Trazado 214467" d="M63,0A63,63,0,1,1,0,63,63,63,0,0,1,63,0Z" transform="translate(318 4319)" fill="#1b3f5e"/>
    <path id="Trazado_214468" data-name="Trazado 214468" d="M31,32.01H14.566A14.582,14.582,0,0,0,0,46.576,4.739,4.739,0,0,0,4.855,51.3a4.826,4.826,0,0,0,4.855-4.719,4.86,4.86,0,0,1,4.855-4.855H31a7.857,7.857,0,0,1,7.845,7.858,7.983,7.983,0,0,1-4.628,7.181L19.391,65.45a4.6,4.6,0,0,0-2.4,4.188v6.069a4.855,4.855,0,0,0,9.711,0V72.414l12.138-7.131A17.563,17.563,0,0,0,31,32.01ZM21.849,87.846a6.07,6.07,0,0,0-6.069,6.069,5.954,5.954,0,0,0,6.069,5.933,6.041,6.041,0,0,0,6.069-5.933A6.157,6.157,0,0,0,21.849,87.846Z" transform="translate(356.723 4315.902)" fill="#fff"/>
  </g>
</svg>
